<svg width="820" height="169" viewBox="0 0 820 169" fill="none" xmlns="http://www.w3.org/2000/svg">
<rect width="820" height="164" fill="black" fill-opacity="0"/>
<rect width="155" height="155" fill="black" fill-opacity="0" transform="translate(665)"/>
<rect width="155" height="155" fill="black" fill-opacity="0" transform="translate(665)"/>
<rect width="155" height="140" fill="black" fill-opacity="0" transform="translate(665 8)"/>
<circle cx="708" cy="118" r="26" fill="#FFC700" stroke="black" stroke-width="8"/>
<circle cx="681" cy="36" r="16" fill="#5D835A"/>
<circle cx="757" cy="24" r="16" fill="#5D835A"/>
<circle cx="804" cy="64" r="16" fill="#5D835A"/>
<circle cx="804" cy="132" r="16" fill="#5D835A"/>
<path d="M688 55.5L696.5 83.5" stroke="black"/>
<path d="M724.5 84L746 45.5" stroke="black"/>
<path d="M744 101L784.5 78" stroke="black"/>
<path d="M747 128L780.5 132" stroke="black"/>
<path d="M32.4 90.8C40.7333 90.8 47.5 94 52.7 100.4C53.2333 101 53.5 101.7 53.5 102.5C53.5 103.567 52.9333 104.5 51.8 105.3C51.2 105.7 50.5667 105.9 49.9 105.9C48.9 105.9 47.9333 105.4 47 104.4C45 102.2 42.8 100.567 40.4 99.5C38 98.3667 35.3333 97.8 32.4 97.8C28.7333 97.8 25.4667 98.7 22.6 100.5C19.7333 102.233 17.5 104.7 15.9 107.9C14.3667 111.1 13.6 114.7 13.6 118.7C13.6 122.633 14.4333 126.2 16.1 129.4C17.7667 132.533 20.1 135 23.1 136.8C26.1 138.6 29.5333 139.5 33.4 139.5C38.7333 139.5 43.0333 138.067 46.3 135.2C47.1667 134.467 48.0667 134.1 49 134.1C49.8 134.1 50.5333 134.367 51.2 134.9C52.1333 135.7 52.6 136.6 52.6 137.6C52.6 138.467 52.2667 139.2 51.6 139.8C46.8 144.267 40.7333 146.5 33.4 146.5C28.2 146.5 23.5333 145.3 19.4 142.9C15.2667 140.433 12 137.1 9.6 132.9C7.26667 128.633 6.1 123.9 6.1 118.7C6.1 113.367 7.23333 108.6 9.5 104.4C11.7667 100.133 14.9 96.8 18.9 94.4C22.9 92 27.4 90.8 32.4 90.8ZM70.1703 95.2C70.1703 94.0667 70.537 93.1333 71.2703 92.4C72.0036 91.6667 72.937 91.3 74.0703 91.3C75.2036 91.3 76.1036 91.6667 76.7703 92.4C77.5036 93.1333 77.8703 94.0667 77.8703 95.2V142.1C77.8703 143.233 77.5036 144.167 76.7703 144.9C76.1036 145.633 75.2036 146 74.0703 146C72.937 146 72.0036 145.633 71.2703 144.9C70.537 144.167 70.1703 143.233 70.1703 142.1V95.2ZM74.0703 70C75.537 70 76.8036 70.5 77.8703 71.5C78.937 72.5 79.4703 73.8 79.4703 75.4C79.4703 76.9333 78.937 78.2333 77.8703 79.3C76.8036 80.3667 75.5036 80.9 73.9703 80.9C72.437 80.9 71.137 80.3667 70.0703 79.3C69.0703 78.2333 68.5703 76.9333 68.5703 75.4C68.5703 73.8 69.1036 72.5 70.1703 71.5C71.237 70.5 72.537 70 74.0703 70ZM121.577 138.3C122.643 138.3 123.51 138.667 124.177 139.4C124.843 140.133 125.177 141.067 125.177 142.2C125.177 143.267 124.777 144.167 123.977 144.9C123.177 145.633 122.177 146 120.977 146H118.877C115.343 146 112.177 145.167 109.377 143.5C106.577 141.767 104.377 139.467 102.777 136.6C101.243 133.667 100.477 130.367 100.477 126.7V100H93.9766C92.9099 100 92.0432 99.7 91.3766 99.1C90.7766 98.4333 90.4766 97.6333 90.4766 96.7C90.4766 95.7 90.7766 94.9 91.3766 94.3C92.0432 93.6333 92.9099 93.3 93.9766 93.3H100.477V77.8C100.477 76.6667 100.81 75.7333 101.477 75C102.21 74.2667 103.143 73.9 104.277 73.9C105.41 73.9 106.343 74.2667 107.077 75C107.81 75.7333 108.177 76.6667 108.177 77.8V93.3H119.477C120.543 93.3 121.377 93.6333 121.977 94.3C122.643 94.9 122.977 95.7 122.977 96.7C122.977 97.6333 122.643 98.4333 121.977 99.1C121.377 99.7 120.543 100 119.477 100H108.177V126.7C108.177 130.1 109.177 132.9 111.177 135.1C113.177 137.233 115.743 138.3 118.877 138.3H121.577ZM162.611 90.8C167.811 90.8 172.511 92.0333 176.711 94.5C180.978 96.9 184.311 100.233 186.711 104.5C189.178 108.767 190.411 113.5 190.411 118.7V142.2C190.411 143.267 190.044 144.167 189.311 144.9C188.578 145.633 187.644 146 186.511 146C185.378 146 184.444 145.667 183.711 145C182.978 144.267 182.611 143.333 182.611 142.2V136.2C180.278 139.4 177.311 141.933 173.711 143.8C170.111 145.6 166.144 146.5 161.811 146.5C156.744 146.5 152.144 145.3 148.011 142.9C143.944 140.433 140.711 137.1 138.311 132.9C135.978 128.633 134.811 123.9 134.811 118.7C134.811 113.5 136.011 108.767 138.411 104.5C140.878 100.233 144.211 96.9 148.411 94.5C152.678 92.0333 157.411 90.8 162.611 90.8ZM162.611 139.5C166.411 139.5 169.844 138.6 172.911 136.8C175.978 135 178.378 132.533 180.111 129.4C181.911 126.2 182.811 122.633 182.811 118.7C182.811 114.767 181.911 111.233 180.111 108.1C178.378 104.9 175.978 102.4 172.911 100.6C169.844 98.7333 166.411 97.8 162.611 97.8C158.811 97.8 155.344 98.7333 152.211 100.6C149.144 102.4 146.711 104.9 144.911 108.1C143.178 111.233 142.311 114.767 142.311 118.7C142.311 122.633 143.178 126.2 144.911 129.4C146.711 132.533 149.144 135 152.211 136.8C155.344 138.6 158.811 139.5 162.611 139.5ZM229.487 138.3C230.553 138.3 231.42 138.667 232.087 139.4C232.753 140.133 233.087 141.067 233.087 142.2C233.087 143.267 232.687 144.167 231.887 144.9C231.087 145.633 230.087 146 228.887 146H226.787C223.253 146 220.087 145.167 217.287 143.5C214.487 141.767 212.287 139.467 210.687 136.6C209.153 133.667 208.387 130.367 208.387 126.7V100H201.887C200.82 100 199.953 99.7 199.287 99.1C198.687 98.4333 198.387 97.6333 198.387 96.7C198.387 95.7 198.687 94.9 199.287 94.3C199.953 93.6333 200.82 93.3 201.887 93.3H208.387V77.8C208.387 76.6667 208.72 75.7333 209.387 75C210.12 74.2667 211.053 73.9 212.187 73.9C213.32 73.9 214.253 74.2667 214.987 75C215.72 75.7333 216.087 76.6667 216.087 77.8V93.3H227.387C228.453 93.3 229.287 93.6333 229.887 94.3C230.553 94.9 230.887 95.7 230.887 96.7C230.887 97.6333 230.553 98.4333 229.887 99.1C229.287 99.7 228.453 100 227.387 100H216.087V126.7C216.087 130.1 217.087 132.9 219.087 135.1C221.087 137.233 223.653 138.3 226.787 138.3H229.487ZM247.221 95.2C247.221 94.0667 247.588 93.1333 248.321 92.4C249.054 91.6667 249.988 91.3 251.121 91.3C252.254 91.3 253.154 91.6667 253.821 92.4C254.554 93.1333 254.921 94.0667 254.921 95.2V142.1C254.921 143.233 254.554 144.167 253.821 144.9C253.154 145.633 252.254 146 251.121 146C249.988 146 249.054 145.633 248.321 144.9C247.588 144.167 247.221 143.233 247.221 142.1V95.2ZM251.121 70C252.588 70 253.854 70.5 254.921 71.5C255.988 72.5 256.521 73.8 256.521 75.4C256.521 76.9333 255.988 78.2333 254.921 79.3C253.854 80.3667 252.554 80.9 251.021 80.9C249.488 80.9 248.188 80.3667 247.121 79.3C246.121 78.2333 245.621 76.9333 245.621 75.4C245.621 73.8 246.154 72.5 247.221 71.5C248.288 70.5 249.588 70 251.121 70ZM299.427 90.8C304.694 90.8 309.427 92 313.627 94.4C317.827 96.8 321.127 100.133 323.527 104.4C325.994 108.667 327.227 113.433 327.227 118.7C327.227 123.967 326.027 128.733 323.627 133C321.227 137.2 317.894 140.5 313.627 142.9C309.427 145.3 304.694 146.5 299.427 146.5C294.161 146.5 289.394 145.3 285.127 142.9C280.927 140.5 277.627 137.2 275.227 133C272.827 128.733 271.627 123.967 271.627 118.7C271.627 113.433 272.827 108.667 275.227 104.4C277.627 100.133 280.927 96.8 285.127 94.4C289.394 92 294.161 90.8 299.427 90.8ZM299.427 97.8C295.627 97.8 292.161 98.7 289.027 100.5C285.961 102.3 283.527 104.8 281.727 108C279.994 111.133 279.127 114.7 279.127 118.7C279.127 122.633 279.994 126.2 281.727 129.4C283.527 132.533 285.961 135 289.027 136.8C292.161 138.6 295.627 139.5 299.427 139.5C303.294 139.5 306.761 138.6 309.827 136.8C312.894 135 315.294 132.533 317.027 129.4C318.761 126.2 319.627 122.633 319.627 118.7C319.627 114.7 318.761 111.133 317.027 108C315.294 104.8 312.894 102.3 309.827 100.5C306.761 98.7 303.294 97.8 299.427 97.8ZM368.103 90.7C372.836 90.7 377.07 91.7 380.803 93.7C384.603 95.7 387.57 98.6333 389.703 102.5C391.836 106.3 392.903 110.867 392.903 116.2V142.2C392.903 143.267 392.536 144.167 391.803 144.9C391.07 145.633 390.17 146 389.103 146C387.97 146 387.036 145.633 386.303 144.9C385.57 144.167 385.203 143.267 385.203 142.2V116.2C385.203 110.267 383.536 105.767 380.203 102.7C376.936 99.5667 372.636 98 367.303 98C364.036 98 361.07 98.6333 358.403 99.9C355.803 101.167 353.736 102.933 352.203 105.2C350.67 107.4 349.903 109.867 349.903 112.6V142.2C349.903 143.333 349.536 144.267 348.803 145C348.136 145.667 347.236 146 346.103 146C344.97 146 344.036 145.667 343.303 145C342.57 144.267 342.203 143.333 342.203 142.2V95.2C342.203 94.0667 342.57 93.1333 343.303 92.4C344.036 91.6667 344.97 91.3 346.103 91.3C347.236 91.3 348.136 91.6667 348.803 92.4C349.536 93.1333 349.903 94.0667 349.903 95.2V98.6C352.103 96.1333 354.77 94.2 357.903 92.8C361.036 91.4 364.436 90.7 368.103 90.7Z" fill="#C4C4C4"/>
<path d="M463.976 90.9C469.242 90.9 473.942 92.1 478.076 94.5C482.276 96.8333 485.542 100.1 487.876 104.3C490.276 108.5 491.476 113.3 491.476 118.7V140.3C491.476 145.567 490.309 150.367 487.976 154.7C485.642 159.033 482.342 162.433 478.076 164.9C473.876 167.433 469.109 168.7 463.776 168.7C458.976 168.7 454.509 167.733 450.376 165.8C446.242 163.933 442.776 161.233 439.976 157.7C439.242 156.767 438.876 155.833 438.876 154.9C438.876 153.5 439.576 152.3 440.976 151.3C441.909 150.7 442.842 150.4 443.776 150.4C445.442 150.4 446.809 151.1 447.876 152.5C449.676 154.833 451.942 156.6 454.676 157.8C457.409 159.067 460.509 159.7 463.976 159.7C467.242 159.7 470.209 158.9 472.876 157.3C475.542 155.767 477.676 153.467 479.276 150.4C480.876 147.4 481.676 143.8 481.676 139.6V134.7C479.609 138.367 476.876 141.233 473.476 143.3C470.076 145.367 466.242 146.4 461.976 146.4C457.042 146.4 452.609 145.233 448.676 142.9C444.809 140.5 441.776 137.2 439.576 133C437.442 128.8 436.376 124.033 436.376 118.7C436.376 113.3 437.542 108.5 439.876 104.3C442.209 100.1 445.476 96.8333 449.676 94.5C453.876 92.1 458.642 90.9 463.976 90.9ZM463.976 137.4C467.376 137.4 470.409 136.6 473.076 135C475.809 133.4 477.909 131.2 479.376 128.4C480.909 125.533 481.676 122.3 481.676 118.7C481.676 115.1 480.909 111.867 479.376 109C477.909 106.133 475.809 103.9 473.076 102.3C470.409 100.7 467.376 99.9 463.976 99.9C460.576 99.9 457.509 100.7 454.776 102.3C452.109 103.9 450.009 106.133 448.476 109C446.942 111.867 446.176 115.1 446.176 118.7C446.176 122.3 446.942 125.533 448.476 128.4C450.009 131.2 452.109 133.4 454.776 135C457.509 136.6 460.576 137.4 463.976 137.4ZM555.756 117.8C555.756 119.067 555.323 120.133 554.456 121C553.59 121.8 552.49 122.2 551.156 122.2H513.156C513.89 126.867 515.99 130.633 519.456 133.5C522.99 136.367 527.29 137.8 532.356 137.8C534.356 137.8 536.423 137.433 538.556 136.7C540.756 135.967 542.556 135.067 543.956 134C544.89 133.267 545.99 132.9 547.256 132.9C548.523 132.9 549.523 133.233 550.256 133.9C551.456 134.9 552.056 136.033 552.056 137.3C552.056 138.5 551.523 139.5 550.456 140.3C548.19 142.1 545.356 143.567 541.956 144.7C538.623 145.833 535.423 146.4 532.356 146.4C526.89 146.4 521.99 145.233 517.656 142.9C513.323 140.5 509.923 137.2 507.456 133C505.056 128.8 503.856 124.033 503.856 118.7C503.856 113.367 504.99 108.6 507.256 104.4C509.59 100.133 512.79 96.8333 516.856 94.5C520.99 92.1 525.656 90.9 530.856 90.9C535.99 90.9 540.423 92.0333 544.156 94.3C547.89 96.5667 550.756 99.7333 552.756 103.8C554.756 107.867 555.756 112.533 555.756 117.8ZM530.856 99.5C525.99 99.5 522.023 100.833 518.956 103.5C515.956 106.167 514.056 109.733 513.256 114.2H546.556C545.956 109.733 544.29 106.167 541.556 103.5C538.823 100.833 535.256 99.5 530.856 99.5ZM591.113 90.9C598.979 90.9 605.513 93.9 610.713 99.9C611.379 100.633 611.713 101.5 611.713 102.5C611.713 103.967 610.979 105.2 609.513 106.2C608.846 106.667 608.079 106.9 607.213 106.9C605.679 106.9 604.379 106.3 603.313 105.1C601.646 103.3 599.813 102 597.813 101.2C595.879 100.333 593.646 99.9 591.113 99.9C585.979 99.9 581.813 101.633 578.613 105.1C575.413 108.5 573.813 113.033 573.813 118.7C573.813 122.3 574.546 125.533 576.013 128.4C577.546 131.2 579.646 133.4 582.313 135C585.046 136.6 588.146 137.4 591.613 137.4C596.146 137.4 599.813 136.233 602.613 133.9C603.879 132.967 605.113 132.5 606.313 132.5C607.246 132.5 608.113 132.8 608.913 133.4C610.179 134.467 610.813 135.667 610.813 137C610.813 138 610.413 138.9 609.613 139.7C604.813 144.167 598.813 146.4 591.613 146.4C586.346 146.4 581.613 145.2 577.413 142.8C573.213 140.4 569.913 137.1 567.513 132.9C565.179 128.633 564.013 123.9 564.013 118.7C564.013 113.367 565.146 108.6 567.413 104.4C569.746 100.133 572.979 96.8333 577.113 94.5C581.246 92.1 585.913 90.9 591.113 90.9ZM668.171 138.8C668.904 139.6 669.271 140.6 669.271 141.8C669.271 143.267 668.671 144.5 667.471 145.5C666.471 146.3 665.404 146.7 664.271 146.7C662.804 146.7 661.604 146.1 660.671 144.9L641.671 121.4L636.671 125.8V141.1C636.671 142.567 636.204 143.767 635.271 144.7C634.404 145.567 633.238 146 631.771 146C630.304 146 629.104 145.567 628.171 144.7C627.304 143.767 626.871 142.567 626.871 141.1V72.8C626.871 71.3333 627.304 70.1667 628.171 69.3C629.104 68.3667 630.304 67.9 631.771 67.9C633.238 67.9 634.404 68.3667 635.271 69.3C636.204 70.1667 636.671 71.3333 636.671 72.8V113.5L660.971 91.8C661.838 90.9333 662.871 90.5 664.071 90.5C665.471 90.5 666.604 91.0333 667.471 92.1C668.338 92.9667 668.771 94 668.771 95.2C668.771 96.6 668.238 97.7333 667.171 98.6L648.771 115L668.171 138.8Z" fill="black"/>
</svg>
